<svg xmlns="http://www.w3.org/2000/svg" width="21" height="20" fill="none" viewBox="0 0 21 20"><mask id="mask0_2018_232139" style="mask-type:alpha" width="21" height="20" x="0" y="0" maskUnits="userSpaceOnUse"><rect width="20" height="20" x=".76" fill="#D9D9D9"/></mask><g mask="url(#mask0_2018_232139)"><path fill="#737876" d="M6.59277 17.5C6.13444 17.5 5.74208 17.3368 5.41569 17.0104C5.0893 16.684 4.92611 16.2917 4.92611 15.8333V5H4.09277V3.33333H8.25944V2.5H13.2594V3.33333H17.4261V5H16.5928V15.8333C16.5928 16.2917 16.4296 16.684 16.1032 17.0104C15.7768 17.3368 15.3844 17.5 14.9261 17.5H6.59277ZM14.9261 5H6.59277V15.8333H14.9261V5ZM8.25944 14.1667H9.92611V6.66667H8.25944V14.1667ZM11.5928 14.1667H13.2594V6.66667H11.5928V14.1667Z"/></g></svg>