<svg xmlns="http://www.w3.org/2000/svg" width="72" height="72" fill="none" viewBox="0 0 72 72"><path fill="#0D0C22" d="M0 26.7667H72V45.1667H0V26.7667Z"/><path fill="#0D0C22" d="M26.8334 72V0H45.2334V72H26.8334Z"/><path fill="#0D0C22" d="M17.0495 4.00548L67.9612 54.9172L54.9504 67.9279L4.03873 17.0162L17.0495 4.00548Z"/><path fill="#0D0C22" d="M4.03871 54.9172L54.9504 4.00548L67.9612 17.0162L17.0495 67.9279L4.03871 54.9172Z"/><path fill="#fff" d="M48 36C48 42.6274 42.6274 48 36 48C29.3726 48 24 42.6274 24 36C24 29.3726 29.3726 24 36 24C42.6274 24 48 29.3726 48 36Z"/></svg>